<?xml version="1.0" encoding="utf-8"?>
<!-- Generator: Adobe Illustrator 24.0.0, SVG Export Plug-In . SVG Version: 6.00 Build 0)  -->
<svg version="1.1" id="Layer_1" xmlns="http://www.w3.org/2000/svg" xmlns:xlink="http://www.w3.org/1999/xlink" x="0px" y="0px"
	 viewBox="0 0 1920 1080" style="enable-background:new 0 0 1920 1080;" xml:space="preserve">
<style type="text/css">
	.st0{fill:#453014;}
</style>
<g>
	<g>
		<g>
			<path class="st0" d="M820.37,361.54l-6.46,2.58h7.36C820.76,362.61,820.42,361.71,820.37,361.54z M853.52,715.88v3.93h10.68
				v-3.93H853.52z M864.14,359.46l-10.56,1.46c0,0.06,0.17,1.18,0.39,3.2h10.68C864.42,361.37,864.2,359.74,864.14,359.46z
				 M890.04,715.88V717h10.68v-1.12H890.04z M906.17,355.98l-10.34,2.81c0.11,0.39,0.62,2.3,1.57,5.34h11.29
				C907.07,359.07,906.23,356.09,906.17,355.98z M917.52,715.88c-0.22,2.3-0.22,3.76-0.22,3.93h6.74c0-0.06,0-1.52,0.28-3.93H917.52
				z M946.51,360.19h-6.74c0,0.22,0,1.63,0.17,3.93h6.8C946.51,361.65,946.51,360.25,946.51,360.19z M973.15,715.88h-6.8
				c0.34,2.25,1.01,4.16,2.08,5.79l5.62-3.71C973.65,717.34,973.32,716.66,973.15,715.88z M985.74,359.46l-6.52,1.46
				c0.06,0.34,0.34,1.46,0.73,3.2h6.91C986.18,361.26,985.79,359.57,985.74,359.46z M1008.1,363.79l-0.11,0.06l0.11,0.28h0.11
				L1008.1,363.79z M1034.34,715.88h-11.35c0,0.17,0.11,0.34,0.17,0.45c6.86,13.71,20.57,13.88,21.13,13.88l0.06-9.55
				C1044.06,720.65,1038.61,720.48,1034.34,715.88z M1076.03,715.88V717h9.55v-1.12H1076.03z M1064.68,349.96l-8.15,13.6l8.77-13.2
				L1064.68,349.96z M1102.72,357.38v6.74h12.36v-6.74H1102.72z M1102.72,715.88v6.74h12.36v-6.74H1102.72z M1024.39,356.54
				l-0.06,0.06l1.35,2.87L1024.39,356.54z"/>
		</g>
		<g>
			<path class="st0" d="M829.08,714.58l-7.87-0.79c4.33-43.32-1.35-65.8-6.91-87.49c-1.52-6.12-3.03-11.91-4.27-18.09
				c-4.27-21.41-3.76-40.85-3.2-61.47c0.17-6.8,0.34-13.71,0.34-20.79c0-21.8,3.26-43.15,7.42-70.18c1.24-8.09,2.53-16.69,3.88-25.9
				c5.39-37.7-5.28-65.12-5.39-65.41l0.84-0.34l6.46-2.58c0.06,0.17,0.39,1.07,0.9,2.58c2.7,7.92,9.78,33.32,4.94,66.87
				c-1.29,9.22-2.64,17.87-3.88,26.02c-4.1,26.63-7.3,47.76-7.3,68.95c0,7.14-0.17,14.1-0.34,21.02
				c-0.56,20.12-1.01,39.16,3.09,59.67c1.18,6.01,2.64,11.69,4.16,17.7C827.39,645.69,833.52,669.91,829.08,714.58z"/>
		</g>
		<g>
			<path class="st0" d="M852.68,588.72c1.8,3.82,11.52,25.51,11.52,52.43v78.67h-10.68v-78.67c0-26.41-10.56-47.99-10.68-48.21
				l-0.39-1.07c-12.19-48.72-4.5-97.49,5.56-142.95c9.1-40.91,6.91-74.51,5.96-84.79c-0.22-2.02-0.39-3.15-0.39-3.2l10.56-1.46
				c0.06,0.28,0.28,1.91,0.51,4.66c1.12,11.97,3.03,45.68-6.18,87.15C848.69,495.27,841.21,542.36,852.68,588.72z"/>
		</g>
		<g>
			<path class="st0" d="M961.74,596.19c-13.15,21.02-25.01,37.09-34.56,50.07c-10.68,14.44-18.37,24.84-21.13,33.1
				c-4.61,13.71-5.23,31.8-5.34,36.52V717h-10.68v-1.12c0.11-4.94,0.73-24.44,5.9-39.9c3.26-9.83,11.41-20.85,22.64-36.07
				c9.44-12.81,21.18-28.71,34.05-49.33c25.74-41.19,6.24-105.81-5.51-123.45c-28.38-37.87-44.78-86.81-49.73-103
				c-0.96-3.03-1.46-4.94-1.57-5.34l10.34-2.81c0.06,0.11,0.9,3.09,2.53,8.15c5.73,18.15,21.58,62.71,47.14,96.82
				C969.27,481.06,990.4,550.34,961.74,596.19z"/>
		</g>
		<g>
			<path class="st0" d="M939.15,502.91c-2.08-16.74-8.09-28.94-17.93-36.24c-12.36-9.22-26.02-7.08-26.58-6.97l-0.67,0.17
				c-19.72,6.57-25.57,20.96-31.19,76.87c-2.58,26.18,1.69,45.63,12.81,57.88c8.54,9.5,21.24,14.5,36.64,14.5h0.39l0.34-0.06
				C951.63,602.6,944.72,547.31,939.15,502.91z M911.84,600.12c-12.81-0.06-22.76-3.93-29.61-11.52
				c-9.33-10.28-12.81-27.42-10.45-50.96c5.68-56.98,11.29-64.56,24.61-69.11c1.8-0.17,11.24-0.84,19.55,5.45
				c7.76,5.79,12.53,15.9,14.33,30.06C936.46,553.65,939.38,595.18,911.84,600.12z"/>
		</g>
		<g>
			<path class="st0" d="M895.38,497.86c0,0,16.86-5.62,22.48,22.48s0,44.95-11.24,44.95c-11.24,0-16.86-5.62-16.86-33.71
				C889.76,503.48,895.38,497.86,895.38,497.86z"/>
			<path class="st0" d="M919.32,520.05c-2.25-11.07-6.41-18.43-12.47-21.97c-6.07-3.48-11.69-1.69-11.91-1.63l-0.62,0.34
				c-0.62,0.62-6.01,6.86-6.01,34.78c0,26.3,4.61,35.18,18.32,35.18c3.65,0,6.86-1.57,9.27-4.55
				C921.96,554.83,923.2,539.44,919.32,520.05z M906.62,563.83c-8.71,0-15.4-2.36-15.4-32.25c0-23.6,4.05-31.02,5-32.42
				c1.29-0.28,5.11-0.9,9.22,1.52c5.23,3.09,8.93,9.78,10.96,19.95c3.65,18.26,2.64,33.15-2.75,39.73
				C911.73,562.65,909.37,563.83,906.62,563.83z"/>
		</g>
		<g>
			<path class="st0" d="M979.5,626.42c-22.76,28.38-44.9,61.87-50.18,72.43c-3.26,6.46-4.5,12.98-5,17.03
				c-0.28,2.42-0.28,3.88-0.28,3.93h-6.74c0-0.17,0-1.63,0.22-3.93c0.51-4.5,1.85-12.25,5.73-20.06
				c5.56-11.07,27.65-44.45,50.97-73.67c18.09-22.59,17.19-57.03,16.41-87.43c-0.11-5.96-0.28-11.74-0.28-17.19
				c0-27.59-12.42-64.73-33.21-99.4c-13.6-22.7-16.52-45.12-17.19-54c-0.17-2.3-0.17-3.71-0.17-3.93h6.74c0,0.06,0,1.46,0.22,3.93
				c0.67,8.54,3.6,29.61,16.13,50.52c10.28,17.14,34.22,61.47,34.22,102.88c0,5.39,0.17,11.13,0.28,17.03
				C998.21,566.13,999.11,601.87,979.5,626.42z"/>
		</g>
		<g>
			<path class="st0" d="M1013.38,620.52c-14.67,22.03-45.57,78.5-40.23,95.36c0.17,0.79,0.5,1.46,0.9,2.08l-5.62,3.71
				c-1.07-1.63-1.74-3.54-2.08-5.79c-4.66-27.65,40.91-98.33,41.41-99.06c10.4-15.62,10.4-143.62,0-159.24
				c-10.28-20.45-24.39-78.89-27.81-93.44c-0.39-1.74-0.67-2.87-0.73-3.2l6.52-1.46c0.06,0.11,0.45,1.8,1.12,4.66
				c3.93,16.41,17.42,71.47,26.75,90.07C1025.29,471.79,1025.29,602.6,1013.38,620.52z"/>
		</g>
		<g>
			<polygon class="st0" points="1008.83,365.75 1008.1,364.12 1007.99,363.84 1008.1,363.79 1008.21,364.12 			"/>
			<polygon class="st0" points="1025.69,359.46 1024.34,356.6 1024.39,356.54 			"/>
			<polygon class="st0" points="1065.3,350.36 1056.53,363.56 1064.68,349.96 			"/>
		</g>
		<g>
			<path class="st0" d="M1043.22,648.28c-10.45,31.24-16.41,54.06-11.52,63.78c0.79,1.52,1.69,2.81,2.64,3.82
				c4.27,4.61,9.72,4.78,10,4.78l-0.06,9.55c-0.56,0-14.27-0.17-21.13-13.88c-0.06-0.11-0.17-0.28-0.17-0.45
				c-6.12-12.81-0.51-35.68,11.13-70.63c11.18-33.55,11.18-33.55,16.8-55.85c4.38-17.7,1.4-66.98,0.28-85.58
				c-0.28-4.55-0.45-7.7-0.45-8.77c-0.11-3.65-6.97-37.09-12.92-65.41l7.19-11.97c4.66,21.97,15.28,72.32,15.28,77.37
				c0,0.96,0.17,3.93,0.45,8.2c1.24,20.73,4.21,69.34-0.62,88.5C1054.51,614.4,1054.51,614.4,1043.22,648.28z"/>
		</g>
		<g>
			<rect x="1076.03" y="715.88" class="st0" width="9.55" height="1.12"/>
		</g>
		<g>
			<rect x="1102.72" y="357.38" class="st0" width="12.36" height="365.24"/>
		</g>
		<polygon class="st0" points="1065.3,350.36 1056.53,363.56 1064.68,349.96 		"/>
		<path class="st0" d="M1068.11,346.14l-2.81,4.21l-8.77,13.2l-0.34,0.56h-0.06l-0.06,0.11l-16.24,27.08l-12.08-27.2l-2.08-4.66
			l-1.35-2.87l-4.94-10.45H766.14v387.71h387.71V346.14H1068.11z M1135.88,715.88h-20.79v6.74h-12.36v-6.74h-17.14V717h-9.55v-1.12
			h-41.69c4.27,4.61,9.72,4.78,10,4.78l-0.06,9.55c-0.56,0-14.27-0.17-21.13-13.88c-0.06-0.11-0.17-0.28-0.17-0.45h-49.84
			c0.17,0.79,0.5,1.46,0.9,2.08l-5.62,3.71c-1.07-1.63-1.74-3.54-2.08-5.79h-42.03c-0.28,2.42-0.28,3.88-0.28,3.93h-6.74
			c0-0.17,0-1.63,0.22-3.93h-16.8V717h-10.68v-1.12H864.2v3.93h-10.68v-3.93h-69.4V364.12h29.78l6.46-2.58
			c0.06,0.17,0.39,1.07,0.9,2.58h32.7c-0.22-2.02-0.39-3.15-0.39-3.2l10.56-1.46c0.06,0.28,0.28,1.91,0.51,4.66h32.76
			c-0.96-3.03-1.46-4.94-1.57-5.34l10.34-2.81c0.06,0.11,0.9,3.09,2.53,8.15h31.24c-0.17-2.3-0.17-3.71-0.17-3.93h6.74
			c0,0.06,0,1.46,0.22,3.93h33.21c-0.39-1.74-0.67-2.87-0.73-3.2l6.52-1.46c0.06,0.11,0.45,1.8,1.12,4.66h21.24l-0.11-0.28
			l0.11-0.06l0.11,0.34l0.62,1.63l0.23,0.56l28.43,63.89l0.34-0.56l7.19-11.97l30.79-51.36l0.22-0.39v-1.8h26.69v-6.74h12.36v6.74
			h20.79V715.88z"/>
		<rect x="1076.03" y="364.12" class="st0" width="9.55" height="351.75"/>
		<polygon class="st0" points="1076.03,365.92 1076.03,366.32 1075.81,366.32 		"/>
		<polygon class="st0" points="1065.3,350.36 1065.59,350.65 1068.77,346.14 1066.73,346.14 1064.68,349.96 1064.69,350.38 
			1065.06,350.62 		"/>
	</g>
</g>
</svg>
